<svg width="375" height="558" viewBox="0 0 375 558" fill="none" xmlns="http://www.w3.org/2000/svg">
<path fill-rule="evenodd" clip-rule="evenodd" d="M0 45L12.5 33.0577C25 21.1154 50 -2.76923 75 1.21154C100 5.19232 125 37.0385 150 46.9904C175 56.9423 200 45 225 41.0193C250 37.0385 278.5 27.7595 303.5 37.7114C328.5 47.6634 363 71.7499 375.5 79.7114C375.5 79.7114 382 557.999 375 557.999C370.5 557.999 362.5 557.999 362.5 557.999C350 557.999 325 557.999 300 557.999C275 557.999 250 557.999 225 557.999C200 557.999 175 557.999 150 557.999C125 557.999 100 557.999 75 557.999C50 557.999 25 557.999 12.5 557.999H0V45Z" fill="white"/>
</svg>
